# xmcd
#
# Track frame offsets:
#	150
#	19010
#	40645
#	59754
#	76885
#	90901
#	114758
#	131557
#	153339
#	186362
#	207767
#	233138
#	256359
#	273957
#	287771
#	297972
#	318848
#	326103
#
# Disc length: 4582 seconds
#
# Revision: 0
# Processed by: cddbd v1.5.2PL0 Copyright (c) Steve Scherf et al.
# Submitted via: EasyCDDAExtractor 16.0.8.2
#
DISCID=f411e412
DTITLE=Γαϊτάνος Πέτρος - Ανθεί και φέρει κι άλλο-Τρ. Πόντου
DYEAR=2006
DGENRE=Παραδ. Πόντου
TTITLE0=Γαϊτάνος Πέτρος - Μοιρολόϊ [σκ. Καρς, παραδοσιακό]
TTITLE1=Γαϊτάνος Πέτρος-Ακρίτες Πόντου - Αητόν'ς επαραπέτανεν [χ. διπάτ, παραδ
TTITLE1=οσιακό]
TTITLE2=Γαϊτάνος Πέτρος-Ακρίτες Πόντου - Σεράντα μήλα [χ. ομάλ Καρς, παραδοσια
TTITLE2=κό]
TTITLE3=Γαϊτάνος Πέτρος-Ακρίτες Πόντου - Ακρίτας όντας έλαμνεν [χ. διπάτ, παρα
TTITLE3=δοσιακό]
TTITLE4=Γαϊτάνος Πέτρος - Η Παναΐα τη Λάλογλης [αργό ομάλ Καρς, παρ., μ. Μ.Καλ
TTITLE4=ιοντζίδης]
TTITLE5=Γαϊτάνος Πέτρος-Ακρίτες Πόντου - Τη Τρίχας το γεφύριν [χ. διπάτ, παραδ
TTITLE5=οσιακό]
TTITLE6=Γαϊτάνος Πέτρος - Τη σπαρελί' σ'τ' αστάριν [Ομάλ Γαράσαρις, διασκ. Μ. 
TTITLE6=Καλιοντίδης]
TTITLE7=Γαϊτάνος Πέτρος - Το Τσιάμπασιν [(Κωτύωρων-Ορντούς), διπάτ, παραδοσιακ
TTITLE7=ό]
TTITLE8=Άνευ ερμηνευτού - Ορχηστρικό [Τικ διπλό, τρομ., Τόνγιας κ κότσ., δ. Μ.
TTITLE8=Καλιοντζίδης]
TTITLE9=Γαϊτάνος Πέτρος - Καραλάζος [χ. καρσιλαμάς, μουσ. στ. Μιχ. Καλιοντζίδη
TTITLE9=ς]
TTITLE10=Γαϊτάνος Πέτρος-Καλιοντζίδης Μιχάλης - Ραχιόπουλον [χ. τικ, μουσ. στ.
TTITLE10=Μιχ. Καλιοντζίδης]
TTITLE11=Γαϊτάνος Πέτρος-Ακρίτες Πόντου - Η κόρ' επήεν σον παρχάρ' [χ. διπάτ, 
TTITLE11=παραδοσιακό]
TTITLE12=Γαϊτάνος Πέτρος - Λάσκουμ' απάν' σα παρχάρια [χ. τας, μ. κ στ. Μιχ. Κ
TTITLE12=αλιοντζίδης]
TTITLE13=Άνευ ερμηνευτού - Ορχηστρικό, Κόνιαλι [χ. καρσιλαμάς, παραδοσιακό]
TTITLE14=Γαϊτάνος Πέτρος - Η μάννα έν' κρύον νερόν [ερμηνεία, μουσ. στ. Γιάννη
TTITLE14=ς Βλασταρίδης]
TTITLE15=Γαϊτάνος Πέτρος - Η μάννα έν' κρύον νερόν [χ. τικ, μουσ. στ. Γιάννης 
TTITLE15=Βλασταρίδης]
TTITLE16=Αλεξανδρίδης Κώστας - Έναν πουλίν, καλόν πουλίν [παραδοσιακό]
TTITLE17=Γαϊτάνος Πέτρος-Ακρίτες Πόντου - Πάρθεν η Ρωμανία [χ. διπάτ, παραδοσι
TTITLE17=ακό]
EXTD=
EXTT0=
EXTT1=
EXTT2=
EXTT3=
EXTT4=
EXTT5=
EXTT6=
EXTT7=
EXTT8=
EXTT9=
EXTT10=
EXTT11=
EXTT12=
EXTT13=
EXTT14=
EXTT15=
EXTT16=
EXTT17=
PLAYORDER=
